G75*
%MOIN*%
%OFA0B0*%
%FSLAX25Y25*%
%IPPOS*%
%LPD*%
%AMOC8*
5,1,8,0,0,1.08239X$1,22.5*
%
%ADD10C,0.00100*%
%ADD11C,0.00110*%
%ADD12R,0.01500X0.04000*%
%ADD13R,0.01500X0.03500*%
%ADD14C,0.00000*%
%ADD15R,0.03500X0.01500*%
D10*
X0007667Y0001500D02*
X0282667Y0001500D01*
X0282667Y0266500D01*
X0007667Y0266500D01*
D11*
X0007667Y0001500D01*
D12*
X0017667Y0086500D03*
X0037667Y0086500D03*
X0067667Y0086500D03*
X0097667Y0086500D03*
X0117667Y0086500D03*
X0137667Y0086500D03*
X0177667Y0086500D03*
X0197667Y0086500D03*
X0227667Y0086500D03*
D13*
X0187667Y0089000D03*
X0157667Y0089000D03*
X0057667Y0089000D03*
D14*
X0015580Y0111500D02*
X0015582Y0111674D01*
X0015589Y0111848D01*
X0015599Y0112021D01*
X0015614Y0112195D01*
X0015633Y0112368D01*
X0015657Y0112540D01*
X0015684Y0112712D01*
X0015716Y0112883D01*
X0015752Y0113053D01*
X0015792Y0113222D01*
X0015837Y0113390D01*
X0015885Y0113557D01*
X0015938Y0113723D01*
X0015994Y0113888D01*
X0016055Y0114051D01*
X0016119Y0114212D01*
X0016188Y0114372D01*
X0016260Y0114530D01*
X0016337Y0114686D01*
X0016417Y0114841D01*
X0016501Y0114993D01*
X0016588Y0115143D01*
X0016680Y0115292D01*
X0016774Y0115437D01*
X0016873Y0115581D01*
X0016975Y0115722D01*
X0017080Y0115860D01*
X0017189Y0115996D01*
X0017301Y0116129D01*
X0017416Y0116259D01*
X0017534Y0116387D01*
X0017656Y0116511D01*
X0017780Y0116633D01*
X0017908Y0116751D01*
X0018038Y0116866D01*
X0018171Y0116978D01*
X0018307Y0117087D01*
X0018445Y0117192D01*
X0018586Y0117294D01*
X0018730Y0117393D01*
X0018875Y0117487D01*
X0019024Y0117579D01*
X0019174Y0117666D01*
X0019326Y0117750D01*
X0019481Y0117830D01*
X0019637Y0117907D01*
X0019795Y0117979D01*
X0019955Y0118048D01*
X0020116Y0118112D01*
X0020279Y0118173D01*
X0020444Y0118229D01*
X0020610Y0118282D01*
X0020777Y0118330D01*
X0020945Y0118375D01*
X0021114Y0118415D01*
X0021284Y0118451D01*
X0021455Y0118483D01*
X0021627Y0118510D01*
X0021799Y0118534D01*
X0021972Y0118553D01*
X0022146Y0118568D01*
X0022319Y0118578D01*
X0022493Y0118585D01*
X0022667Y0118587D01*
X0022841Y0118585D01*
X0023015Y0118578D01*
X0023188Y0118568D01*
X0023362Y0118553D01*
X0023535Y0118534D01*
X0023707Y0118510D01*
X0023879Y0118483D01*
X0024050Y0118451D01*
X0024220Y0118415D01*
X0024389Y0118375D01*
X0024557Y0118330D01*
X0024724Y0118282D01*
X0024890Y0118229D01*
X0025055Y0118173D01*
X0025218Y0118112D01*
X0025379Y0118048D01*
X0025539Y0117979D01*
X0025697Y0117907D01*
X0025853Y0117830D01*
X0026008Y0117750D01*
X0026160Y0117666D01*
X0026310Y0117579D01*
X0026459Y0117487D01*
X0026604Y0117393D01*
X0026748Y0117294D01*
X0026889Y0117192D01*
X0027027Y0117087D01*
X0027163Y0116978D01*
X0027296Y0116866D01*
X0027426Y0116751D01*
X0027554Y0116633D01*
X0027678Y0116511D01*
X0027800Y0116387D01*
X0027918Y0116259D01*
X0028033Y0116129D01*
X0028145Y0115996D01*
X0028254Y0115860D01*
X0028359Y0115722D01*
X0028461Y0115581D01*
X0028560Y0115437D01*
X0028654Y0115292D01*
X0028746Y0115143D01*
X0028833Y0114993D01*
X0028917Y0114841D01*
X0028997Y0114686D01*
X0029074Y0114530D01*
X0029146Y0114372D01*
X0029215Y0114212D01*
X0029279Y0114051D01*
X0029340Y0113888D01*
X0029396Y0113723D01*
X0029449Y0113557D01*
X0029497Y0113390D01*
X0029542Y0113222D01*
X0029582Y0113053D01*
X0029618Y0112883D01*
X0029650Y0112712D01*
X0029677Y0112540D01*
X0029701Y0112368D01*
X0029720Y0112195D01*
X0029735Y0112021D01*
X0029745Y0111848D01*
X0029752Y0111674D01*
X0029754Y0111500D01*
X0029752Y0111326D01*
X0029745Y0111152D01*
X0029735Y0110979D01*
X0029720Y0110805D01*
X0029701Y0110632D01*
X0029677Y0110460D01*
X0029650Y0110288D01*
X0029618Y0110117D01*
X0029582Y0109947D01*
X0029542Y0109778D01*
X0029497Y0109610D01*
X0029449Y0109443D01*
X0029396Y0109277D01*
X0029340Y0109112D01*
X0029279Y0108949D01*
X0029215Y0108788D01*
X0029146Y0108628D01*
X0029074Y0108470D01*
X0028997Y0108314D01*
X0028917Y0108159D01*
X0028833Y0108007D01*
X0028746Y0107857D01*
X0028654Y0107708D01*
X0028560Y0107563D01*
X0028461Y0107419D01*
X0028359Y0107278D01*
X0028254Y0107140D01*
X0028145Y0107004D01*
X0028033Y0106871D01*
X0027918Y0106741D01*
X0027800Y0106613D01*
X0027678Y0106489D01*
X0027554Y0106367D01*
X0027426Y0106249D01*
X0027296Y0106134D01*
X0027163Y0106022D01*
X0027027Y0105913D01*
X0026889Y0105808D01*
X0026748Y0105706D01*
X0026604Y0105607D01*
X0026459Y0105513D01*
X0026310Y0105421D01*
X0026160Y0105334D01*
X0026008Y0105250D01*
X0025853Y0105170D01*
X0025697Y0105093D01*
X0025539Y0105021D01*
X0025379Y0104952D01*
X0025218Y0104888D01*
X0025055Y0104827D01*
X0024890Y0104771D01*
X0024724Y0104718D01*
X0024557Y0104670D01*
X0024389Y0104625D01*
X0024220Y0104585D01*
X0024050Y0104549D01*
X0023879Y0104517D01*
X0023707Y0104490D01*
X0023535Y0104466D01*
X0023362Y0104447D01*
X0023188Y0104432D01*
X0023015Y0104422D01*
X0022841Y0104415D01*
X0022667Y0104413D01*
X0022493Y0104415D01*
X0022319Y0104422D01*
X0022146Y0104432D01*
X0021972Y0104447D01*
X0021799Y0104466D01*
X0021627Y0104490D01*
X0021455Y0104517D01*
X0021284Y0104549D01*
X0021114Y0104585D01*
X0020945Y0104625D01*
X0020777Y0104670D01*
X0020610Y0104718D01*
X0020444Y0104771D01*
X0020279Y0104827D01*
X0020116Y0104888D01*
X0019955Y0104952D01*
X0019795Y0105021D01*
X0019637Y0105093D01*
X0019481Y0105170D01*
X0019326Y0105250D01*
X0019174Y0105334D01*
X0019024Y0105421D01*
X0018875Y0105513D01*
X0018730Y0105607D01*
X0018586Y0105706D01*
X0018445Y0105808D01*
X0018307Y0105913D01*
X0018171Y0106022D01*
X0018038Y0106134D01*
X0017908Y0106249D01*
X0017780Y0106367D01*
X0017656Y0106489D01*
X0017534Y0106613D01*
X0017416Y0106741D01*
X0017301Y0106871D01*
X0017189Y0107004D01*
X0017080Y0107140D01*
X0016975Y0107278D01*
X0016873Y0107419D01*
X0016774Y0107563D01*
X0016680Y0107708D01*
X0016588Y0107857D01*
X0016501Y0108007D01*
X0016417Y0108159D01*
X0016337Y0108314D01*
X0016260Y0108470D01*
X0016188Y0108628D01*
X0016119Y0108788D01*
X0016055Y0108949D01*
X0015994Y0109112D01*
X0015938Y0109277D01*
X0015885Y0109443D01*
X0015837Y0109610D01*
X0015792Y0109778D01*
X0015752Y0109947D01*
X0015716Y0110117D01*
X0015684Y0110288D01*
X0015657Y0110460D01*
X0015633Y0110632D01*
X0015614Y0110805D01*
X0015599Y0110979D01*
X0015589Y0111152D01*
X0015582Y0111326D01*
X0015580Y0111500D01*
X0015580Y0251500D02*
X0015582Y0251674D01*
X0015589Y0251848D01*
X0015599Y0252021D01*
X0015614Y0252195D01*
X0015633Y0252368D01*
X0015657Y0252540D01*
X0015684Y0252712D01*
X0015716Y0252883D01*
X0015752Y0253053D01*
X0015792Y0253222D01*
X0015837Y0253390D01*
X0015885Y0253557D01*
X0015938Y0253723D01*
X0015994Y0253888D01*
X0016055Y0254051D01*
X0016119Y0254212D01*
X0016188Y0254372D01*
X0016260Y0254530D01*
X0016337Y0254686D01*
X0016417Y0254841D01*
X0016501Y0254993D01*
X0016588Y0255143D01*
X0016680Y0255292D01*
X0016774Y0255437D01*
X0016873Y0255581D01*
X0016975Y0255722D01*
X0017080Y0255860D01*
X0017189Y0255996D01*
X0017301Y0256129D01*
X0017416Y0256259D01*
X0017534Y0256387D01*
X0017656Y0256511D01*
X0017780Y0256633D01*
X0017908Y0256751D01*
X0018038Y0256866D01*
X0018171Y0256978D01*
X0018307Y0257087D01*
X0018445Y0257192D01*
X0018586Y0257294D01*
X0018730Y0257393D01*
X0018875Y0257487D01*
X0019024Y0257579D01*
X0019174Y0257666D01*
X0019326Y0257750D01*
X0019481Y0257830D01*
X0019637Y0257907D01*
X0019795Y0257979D01*
X0019955Y0258048D01*
X0020116Y0258112D01*
X0020279Y0258173D01*
X0020444Y0258229D01*
X0020610Y0258282D01*
X0020777Y0258330D01*
X0020945Y0258375D01*
X0021114Y0258415D01*
X0021284Y0258451D01*
X0021455Y0258483D01*
X0021627Y0258510D01*
X0021799Y0258534D01*
X0021972Y0258553D01*
X0022146Y0258568D01*
X0022319Y0258578D01*
X0022493Y0258585D01*
X0022667Y0258587D01*
X0022841Y0258585D01*
X0023015Y0258578D01*
X0023188Y0258568D01*
X0023362Y0258553D01*
X0023535Y0258534D01*
X0023707Y0258510D01*
X0023879Y0258483D01*
X0024050Y0258451D01*
X0024220Y0258415D01*
X0024389Y0258375D01*
X0024557Y0258330D01*
X0024724Y0258282D01*
X0024890Y0258229D01*
X0025055Y0258173D01*
X0025218Y0258112D01*
X0025379Y0258048D01*
X0025539Y0257979D01*
X0025697Y0257907D01*
X0025853Y0257830D01*
X0026008Y0257750D01*
X0026160Y0257666D01*
X0026310Y0257579D01*
X0026459Y0257487D01*
X0026604Y0257393D01*
X0026748Y0257294D01*
X0026889Y0257192D01*
X0027027Y0257087D01*
X0027163Y0256978D01*
X0027296Y0256866D01*
X0027426Y0256751D01*
X0027554Y0256633D01*
X0027678Y0256511D01*
X0027800Y0256387D01*
X0027918Y0256259D01*
X0028033Y0256129D01*
X0028145Y0255996D01*
X0028254Y0255860D01*
X0028359Y0255722D01*
X0028461Y0255581D01*
X0028560Y0255437D01*
X0028654Y0255292D01*
X0028746Y0255143D01*
X0028833Y0254993D01*
X0028917Y0254841D01*
X0028997Y0254686D01*
X0029074Y0254530D01*
X0029146Y0254372D01*
X0029215Y0254212D01*
X0029279Y0254051D01*
X0029340Y0253888D01*
X0029396Y0253723D01*
X0029449Y0253557D01*
X0029497Y0253390D01*
X0029542Y0253222D01*
X0029582Y0253053D01*
X0029618Y0252883D01*
X0029650Y0252712D01*
X0029677Y0252540D01*
X0029701Y0252368D01*
X0029720Y0252195D01*
X0029735Y0252021D01*
X0029745Y0251848D01*
X0029752Y0251674D01*
X0029754Y0251500D01*
X0029752Y0251326D01*
X0029745Y0251152D01*
X0029735Y0250979D01*
X0029720Y0250805D01*
X0029701Y0250632D01*
X0029677Y0250460D01*
X0029650Y0250288D01*
X0029618Y0250117D01*
X0029582Y0249947D01*
X0029542Y0249778D01*
X0029497Y0249610D01*
X0029449Y0249443D01*
X0029396Y0249277D01*
X0029340Y0249112D01*
X0029279Y0248949D01*
X0029215Y0248788D01*
X0029146Y0248628D01*
X0029074Y0248470D01*
X0028997Y0248314D01*
X0028917Y0248159D01*
X0028833Y0248007D01*
X0028746Y0247857D01*
X0028654Y0247708D01*
X0028560Y0247563D01*
X0028461Y0247419D01*
X0028359Y0247278D01*
X0028254Y0247140D01*
X0028145Y0247004D01*
X0028033Y0246871D01*
X0027918Y0246741D01*
X0027800Y0246613D01*
X0027678Y0246489D01*
X0027554Y0246367D01*
X0027426Y0246249D01*
X0027296Y0246134D01*
X0027163Y0246022D01*
X0027027Y0245913D01*
X0026889Y0245808D01*
X0026748Y0245706D01*
X0026604Y0245607D01*
X0026459Y0245513D01*
X0026310Y0245421D01*
X0026160Y0245334D01*
X0026008Y0245250D01*
X0025853Y0245170D01*
X0025697Y0245093D01*
X0025539Y0245021D01*
X0025379Y0244952D01*
X0025218Y0244888D01*
X0025055Y0244827D01*
X0024890Y0244771D01*
X0024724Y0244718D01*
X0024557Y0244670D01*
X0024389Y0244625D01*
X0024220Y0244585D01*
X0024050Y0244549D01*
X0023879Y0244517D01*
X0023707Y0244490D01*
X0023535Y0244466D01*
X0023362Y0244447D01*
X0023188Y0244432D01*
X0023015Y0244422D01*
X0022841Y0244415D01*
X0022667Y0244413D01*
X0022493Y0244415D01*
X0022319Y0244422D01*
X0022146Y0244432D01*
X0021972Y0244447D01*
X0021799Y0244466D01*
X0021627Y0244490D01*
X0021455Y0244517D01*
X0021284Y0244549D01*
X0021114Y0244585D01*
X0020945Y0244625D01*
X0020777Y0244670D01*
X0020610Y0244718D01*
X0020444Y0244771D01*
X0020279Y0244827D01*
X0020116Y0244888D01*
X0019955Y0244952D01*
X0019795Y0245021D01*
X0019637Y0245093D01*
X0019481Y0245170D01*
X0019326Y0245250D01*
X0019174Y0245334D01*
X0019024Y0245421D01*
X0018875Y0245513D01*
X0018730Y0245607D01*
X0018586Y0245706D01*
X0018445Y0245808D01*
X0018307Y0245913D01*
X0018171Y0246022D01*
X0018038Y0246134D01*
X0017908Y0246249D01*
X0017780Y0246367D01*
X0017656Y0246489D01*
X0017534Y0246613D01*
X0017416Y0246741D01*
X0017301Y0246871D01*
X0017189Y0247004D01*
X0017080Y0247140D01*
X0016975Y0247278D01*
X0016873Y0247419D01*
X0016774Y0247563D01*
X0016680Y0247708D01*
X0016588Y0247857D01*
X0016501Y0248007D01*
X0016417Y0248159D01*
X0016337Y0248314D01*
X0016260Y0248470D01*
X0016188Y0248628D01*
X0016119Y0248788D01*
X0016055Y0248949D01*
X0015994Y0249112D01*
X0015938Y0249277D01*
X0015885Y0249443D01*
X0015837Y0249610D01*
X0015792Y0249778D01*
X0015752Y0249947D01*
X0015716Y0250117D01*
X0015684Y0250288D01*
X0015657Y0250460D01*
X0015633Y0250632D01*
X0015614Y0250805D01*
X0015599Y0250979D01*
X0015589Y0251152D01*
X0015582Y0251326D01*
X0015580Y0251500D01*
X0260580Y0251500D02*
X0260582Y0251674D01*
X0260589Y0251848D01*
X0260599Y0252021D01*
X0260614Y0252195D01*
X0260633Y0252368D01*
X0260657Y0252540D01*
X0260684Y0252712D01*
X0260716Y0252883D01*
X0260752Y0253053D01*
X0260792Y0253222D01*
X0260837Y0253390D01*
X0260885Y0253557D01*
X0260938Y0253723D01*
X0260994Y0253888D01*
X0261055Y0254051D01*
X0261119Y0254212D01*
X0261188Y0254372D01*
X0261260Y0254530D01*
X0261337Y0254686D01*
X0261417Y0254841D01*
X0261501Y0254993D01*
X0261588Y0255143D01*
X0261680Y0255292D01*
X0261774Y0255437D01*
X0261873Y0255581D01*
X0261975Y0255722D01*
X0262080Y0255860D01*
X0262189Y0255996D01*
X0262301Y0256129D01*
X0262416Y0256259D01*
X0262534Y0256387D01*
X0262656Y0256511D01*
X0262780Y0256633D01*
X0262908Y0256751D01*
X0263038Y0256866D01*
X0263171Y0256978D01*
X0263307Y0257087D01*
X0263445Y0257192D01*
X0263586Y0257294D01*
X0263730Y0257393D01*
X0263875Y0257487D01*
X0264024Y0257579D01*
X0264174Y0257666D01*
X0264326Y0257750D01*
X0264481Y0257830D01*
X0264637Y0257907D01*
X0264795Y0257979D01*
X0264955Y0258048D01*
X0265116Y0258112D01*
X0265279Y0258173D01*
X0265444Y0258229D01*
X0265610Y0258282D01*
X0265777Y0258330D01*
X0265945Y0258375D01*
X0266114Y0258415D01*
X0266284Y0258451D01*
X0266455Y0258483D01*
X0266627Y0258510D01*
X0266799Y0258534D01*
X0266972Y0258553D01*
X0267146Y0258568D01*
X0267319Y0258578D01*
X0267493Y0258585D01*
X0267667Y0258587D01*
X0267841Y0258585D01*
X0268015Y0258578D01*
X0268188Y0258568D01*
X0268362Y0258553D01*
X0268535Y0258534D01*
X0268707Y0258510D01*
X0268879Y0258483D01*
X0269050Y0258451D01*
X0269220Y0258415D01*
X0269389Y0258375D01*
X0269557Y0258330D01*
X0269724Y0258282D01*
X0269890Y0258229D01*
X0270055Y0258173D01*
X0270218Y0258112D01*
X0270379Y0258048D01*
X0270539Y0257979D01*
X0270697Y0257907D01*
X0270853Y0257830D01*
X0271008Y0257750D01*
X0271160Y0257666D01*
X0271310Y0257579D01*
X0271459Y0257487D01*
X0271604Y0257393D01*
X0271748Y0257294D01*
X0271889Y0257192D01*
X0272027Y0257087D01*
X0272163Y0256978D01*
X0272296Y0256866D01*
X0272426Y0256751D01*
X0272554Y0256633D01*
X0272678Y0256511D01*
X0272800Y0256387D01*
X0272918Y0256259D01*
X0273033Y0256129D01*
X0273145Y0255996D01*
X0273254Y0255860D01*
X0273359Y0255722D01*
X0273461Y0255581D01*
X0273560Y0255437D01*
X0273654Y0255292D01*
X0273746Y0255143D01*
X0273833Y0254993D01*
X0273917Y0254841D01*
X0273997Y0254686D01*
X0274074Y0254530D01*
X0274146Y0254372D01*
X0274215Y0254212D01*
X0274279Y0254051D01*
X0274340Y0253888D01*
X0274396Y0253723D01*
X0274449Y0253557D01*
X0274497Y0253390D01*
X0274542Y0253222D01*
X0274582Y0253053D01*
X0274618Y0252883D01*
X0274650Y0252712D01*
X0274677Y0252540D01*
X0274701Y0252368D01*
X0274720Y0252195D01*
X0274735Y0252021D01*
X0274745Y0251848D01*
X0274752Y0251674D01*
X0274754Y0251500D01*
X0274752Y0251326D01*
X0274745Y0251152D01*
X0274735Y0250979D01*
X0274720Y0250805D01*
X0274701Y0250632D01*
X0274677Y0250460D01*
X0274650Y0250288D01*
X0274618Y0250117D01*
X0274582Y0249947D01*
X0274542Y0249778D01*
X0274497Y0249610D01*
X0274449Y0249443D01*
X0274396Y0249277D01*
X0274340Y0249112D01*
X0274279Y0248949D01*
X0274215Y0248788D01*
X0274146Y0248628D01*
X0274074Y0248470D01*
X0273997Y0248314D01*
X0273917Y0248159D01*
X0273833Y0248007D01*
X0273746Y0247857D01*
X0273654Y0247708D01*
X0273560Y0247563D01*
X0273461Y0247419D01*
X0273359Y0247278D01*
X0273254Y0247140D01*
X0273145Y0247004D01*
X0273033Y0246871D01*
X0272918Y0246741D01*
X0272800Y0246613D01*
X0272678Y0246489D01*
X0272554Y0246367D01*
X0272426Y0246249D01*
X0272296Y0246134D01*
X0272163Y0246022D01*
X0272027Y0245913D01*
X0271889Y0245808D01*
X0271748Y0245706D01*
X0271604Y0245607D01*
X0271459Y0245513D01*
X0271310Y0245421D01*
X0271160Y0245334D01*
X0271008Y0245250D01*
X0270853Y0245170D01*
X0270697Y0245093D01*
X0270539Y0245021D01*
X0270379Y0244952D01*
X0270218Y0244888D01*
X0270055Y0244827D01*
X0269890Y0244771D01*
X0269724Y0244718D01*
X0269557Y0244670D01*
X0269389Y0244625D01*
X0269220Y0244585D01*
X0269050Y0244549D01*
X0268879Y0244517D01*
X0268707Y0244490D01*
X0268535Y0244466D01*
X0268362Y0244447D01*
X0268188Y0244432D01*
X0268015Y0244422D01*
X0267841Y0244415D01*
X0267667Y0244413D01*
X0267493Y0244415D01*
X0267319Y0244422D01*
X0267146Y0244432D01*
X0266972Y0244447D01*
X0266799Y0244466D01*
X0266627Y0244490D01*
X0266455Y0244517D01*
X0266284Y0244549D01*
X0266114Y0244585D01*
X0265945Y0244625D01*
X0265777Y0244670D01*
X0265610Y0244718D01*
X0265444Y0244771D01*
X0265279Y0244827D01*
X0265116Y0244888D01*
X0264955Y0244952D01*
X0264795Y0245021D01*
X0264637Y0245093D01*
X0264481Y0245170D01*
X0264326Y0245250D01*
X0264174Y0245334D01*
X0264024Y0245421D01*
X0263875Y0245513D01*
X0263730Y0245607D01*
X0263586Y0245706D01*
X0263445Y0245808D01*
X0263307Y0245913D01*
X0263171Y0246022D01*
X0263038Y0246134D01*
X0262908Y0246249D01*
X0262780Y0246367D01*
X0262656Y0246489D01*
X0262534Y0246613D01*
X0262416Y0246741D01*
X0262301Y0246871D01*
X0262189Y0247004D01*
X0262080Y0247140D01*
X0261975Y0247278D01*
X0261873Y0247419D01*
X0261774Y0247563D01*
X0261680Y0247708D01*
X0261588Y0247857D01*
X0261501Y0248007D01*
X0261417Y0248159D01*
X0261337Y0248314D01*
X0261260Y0248470D01*
X0261188Y0248628D01*
X0261119Y0248788D01*
X0261055Y0248949D01*
X0260994Y0249112D01*
X0260938Y0249277D01*
X0260885Y0249443D01*
X0260837Y0249610D01*
X0260792Y0249778D01*
X0260752Y0249947D01*
X0260716Y0250117D01*
X0260684Y0250288D01*
X0260657Y0250460D01*
X0260633Y0250632D01*
X0260614Y0250805D01*
X0260599Y0250979D01*
X0260589Y0251152D01*
X0260582Y0251326D01*
X0260580Y0251500D01*
X0260580Y0111500D02*
X0260582Y0111674D01*
X0260589Y0111848D01*
X0260599Y0112021D01*
X0260614Y0112195D01*
X0260633Y0112368D01*
X0260657Y0112540D01*
X0260684Y0112712D01*
X0260716Y0112883D01*
X0260752Y0113053D01*
X0260792Y0113222D01*
X0260837Y0113390D01*
X0260885Y0113557D01*
X0260938Y0113723D01*
X0260994Y0113888D01*
X0261055Y0114051D01*
X0261119Y0114212D01*
X0261188Y0114372D01*
X0261260Y0114530D01*
X0261337Y0114686D01*
X0261417Y0114841D01*
X0261501Y0114993D01*
X0261588Y0115143D01*
X0261680Y0115292D01*
X0261774Y0115437D01*
X0261873Y0115581D01*
X0261975Y0115722D01*
X0262080Y0115860D01*
X0262189Y0115996D01*
X0262301Y0116129D01*
X0262416Y0116259D01*
X0262534Y0116387D01*
X0262656Y0116511D01*
X0262780Y0116633D01*
X0262908Y0116751D01*
X0263038Y0116866D01*
X0263171Y0116978D01*
X0263307Y0117087D01*
X0263445Y0117192D01*
X0263586Y0117294D01*
X0263730Y0117393D01*
X0263875Y0117487D01*
X0264024Y0117579D01*
X0264174Y0117666D01*
X0264326Y0117750D01*
X0264481Y0117830D01*
X0264637Y0117907D01*
X0264795Y0117979D01*
X0264955Y0118048D01*
X0265116Y0118112D01*
X0265279Y0118173D01*
X0265444Y0118229D01*
X0265610Y0118282D01*
X0265777Y0118330D01*
X0265945Y0118375D01*
X0266114Y0118415D01*
X0266284Y0118451D01*
X0266455Y0118483D01*
X0266627Y0118510D01*
X0266799Y0118534D01*
X0266972Y0118553D01*
X0267146Y0118568D01*
X0267319Y0118578D01*
X0267493Y0118585D01*
X0267667Y0118587D01*
X0267841Y0118585D01*
X0268015Y0118578D01*
X0268188Y0118568D01*
X0268362Y0118553D01*
X0268535Y0118534D01*
X0268707Y0118510D01*
X0268879Y0118483D01*
X0269050Y0118451D01*
X0269220Y0118415D01*
X0269389Y0118375D01*
X0269557Y0118330D01*
X0269724Y0118282D01*
X0269890Y0118229D01*
X0270055Y0118173D01*
X0270218Y0118112D01*
X0270379Y0118048D01*
X0270539Y0117979D01*
X0270697Y0117907D01*
X0270853Y0117830D01*
X0271008Y0117750D01*
X0271160Y0117666D01*
X0271310Y0117579D01*
X0271459Y0117487D01*
X0271604Y0117393D01*
X0271748Y0117294D01*
X0271889Y0117192D01*
X0272027Y0117087D01*
X0272163Y0116978D01*
X0272296Y0116866D01*
X0272426Y0116751D01*
X0272554Y0116633D01*
X0272678Y0116511D01*
X0272800Y0116387D01*
X0272918Y0116259D01*
X0273033Y0116129D01*
X0273145Y0115996D01*
X0273254Y0115860D01*
X0273359Y0115722D01*
X0273461Y0115581D01*
X0273560Y0115437D01*
X0273654Y0115292D01*
X0273746Y0115143D01*
X0273833Y0114993D01*
X0273917Y0114841D01*
X0273997Y0114686D01*
X0274074Y0114530D01*
X0274146Y0114372D01*
X0274215Y0114212D01*
X0274279Y0114051D01*
X0274340Y0113888D01*
X0274396Y0113723D01*
X0274449Y0113557D01*
X0274497Y0113390D01*
X0274542Y0113222D01*
X0274582Y0113053D01*
X0274618Y0112883D01*
X0274650Y0112712D01*
X0274677Y0112540D01*
X0274701Y0112368D01*
X0274720Y0112195D01*
X0274735Y0112021D01*
X0274745Y0111848D01*
X0274752Y0111674D01*
X0274754Y0111500D01*
X0274752Y0111326D01*
X0274745Y0111152D01*
X0274735Y0110979D01*
X0274720Y0110805D01*
X0274701Y0110632D01*
X0274677Y0110460D01*
X0274650Y0110288D01*
X0274618Y0110117D01*
X0274582Y0109947D01*
X0274542Y0109778D01*
X0274497Y0109610D01*
X0274449Y0109443D01*
X0274396Y0109277D01*
X0274340Y0109112D01*
X0274279Y0108949D01*
X0274215Y0108788D01*
X0274146Y0108628D01*
X0274074Y0108470D01*
X0273997Y0108314D01*
X0273917Y0108159D01*
X0273833Y0108007D01*
X0273746Y0107857D01*
X0273654Y0107708D01*
X0273560Y0107563D01*
X0273461Y0107419D01*
X0273359Y0107278D01*
X0273254Y0107140D01*
X0273145Y0107004D01*
X0273033Y0106871D01*
X0272918Y0106741D01*
X0272800Y0106613D01*
X0272678Y0106489D01*
X0272554Y0106367D01*
X0272426Y0106249D01*
X0272296Y0106134D01*
X0272163Y0106022D01*
X0272027Y0105913D01*
X0271889Y0105808D01*
X0271748Y0105706D01*
X0271604Y0105607D01*
X0271459Y0105513D01*
X0271310Y0105421D01*
X0271160Y0105334D01*
X0271008Y0105250D01*
X0270853Y0105170D01*
X0270697Y0105093D01*
X0270539Y0105021D01*
X0270379Y0104952D01*
X0270218Y0104888D01*
X0270055Y0104827D01*
X0269890Y0104771D01*
X0269724Y0104718D01*
X0269557Y0104670D01*
X0269389Y0104625D01*
X0269220Y0104585D01*
X0269050Y0104549D01*
X0268879Y0104517D01*
X0268707Y0104490D01*
X0268535Y0104466D01*
X0268362Y0104447D01*
X0268188Y0104432D01*
X0268015Y0104422D01*
X0267841Y0104415D01*
X0267667Y0104413D01*
X0267493Y0104415D01*
X0267319Y0104422D01*
X0267146Y0104432D01*
X0266972Y0104447D01*
X0266799Y0104466D01*
X0266627Y0104490D01*
X0266455Y0104517D01*
X0266284Y0104549D01*
X0266114Y0104585D01*
X0265945Y0104625D01*
X0265777Y0104670D01*
X0265610Y0104718D01*
X0265444Y0104771D01*
X0265279Y0104827D01*
X0265116Y0104888D01*
X0264955Y0104952D01*
X0264795Y0105021D01*
X0264637Y0105093D01*
X0264481Y0105170D01*
X0264326Y0105250D01*
X0264174Y0105334D01*
X0264024Y0105421D01*
X0263875Y0105513D01*
X0263730Y0105607D01*
X0263586Y0105706D01*
X0263445Y0105808D01*
X0263307Y0105913D01*
X0263171Y0106022D01*
X0263038Y0106134D01*
X0262908Y0106249D01*
X0262780Y0106367D01*
X0262656Y0106489D01*
X0262534Y0106613D01*
X0262416Y0106741D01*
X0262301Y0106871D01*
X0262189Y0107004D01*
X0262080Y0107140D01*
X0261975Y0107278D01*
X0261873Y0107419D01*
X0261774Y0107563D01*
X0261680Y0107708D01*
X0261588Y0107857D01*
X0261501Y0108007D01*
X0261417Y0108159D01*
X0261337Y0108314D01*
X0261260Y0108470D01*
X0261188Y0108628D01*
X0261119Y0108788D01*
X0261055Y0108949D01*
X0260994Y0109112D01*
X0260938Y0109277D01*
X0260885Y0109443D01*
X0260837Y0109610D01*
X0260792Y0109778D01*
X0260752Y0109947D01*
X0260716Y0110117D01*
X0260684Y0110288D01*
X0260657Y0110460D01*
X0260633Y0110632D01*
X0260614Y0110805D01*
X0260599Y0110979D01*
X0260589Y0111152D01*
X0260582Y0111326D01*
X0260580Y0111500D01*
D15*
X0272667Y0066500D03*
X0242667Y0066500D03*
X0242667Y0021500D03*
X0272667Y0021500D03*
M02*
