%
M48
M72
T01C0.01200
T02C0.02756
T03C0.03150
T04C0.03200
T05C0.03937
T06C0.04000
T07C0.04724
T08C0.05118
T09C0.07874
T10C0.14173
%
T01
X110517Y112850
X113917Y112850
X120717Y126450
X85867Y235250
T02
X197667Y166500
X207667Y166500
T03
X107667Y161500
X107667Y171500
X107667Y181500
X107667Y191500
X107667Y201500
X107667Y211500
X107667Y221500
X107667Y231500
X107667Y241500
X107667Y251500
X107667Y261500
X47667Y261500
X47667Y251500
X47667Y241500
X47667Y231500
X47667Y221500
X47667Y211500
X47667Y201500
X47667Y191500
X47667Y181500
X47667Y171500
X47667Y161500
X47667Y151500
X47667Y141500
X47667Y131500
X47667Y121500
X107667Y121500
X107667Y131500
X107667Y141500
X107667Y151500
T04
X127667Y156500
X147667Y156500
X147667Y136500
X127667Y136500
X127667Y116500
X147667Y116500
X142667Y176500
X142667Y186500
X142667Y196500
X142667Y206500
X172667Y206500
X172667Y196500
X172667Y186500
X172667Y176500
T05
X225108Y161343
X225108Y151500
X225108Y141657
X225108Y201657
X225108Y211500
X225108Y221343
T06
X173167Y156500
X162167Y156500
X162167Y136500
X173167Y136500
X173167Y116500
X162167Y116500
T07
X181387Y256500
X195167Y256500
X212608Y256500
X226387Y256500
X240167Y256500
T08
X164852Y230949
X155009Y230949
X135324Y230949
X125482Y230949
X145167Y250634
T09
X252667Y228823
X252667Y194177
X252667Y168823
X252667Y134177
T10
X22667Y111500
X22667Y251500
X267667Y251500
X267667Y111500
M30
